<mxfile host="app.diagrams.net" modified="2021-05-18T12:46:55.843Z" agent="5.0 (X11)" etag="O8-F77nY2yiXGjtlFYMk" version="14.6.13" type="github">
  <diagram id="Su0X6LsPiTrYVPhfNV1G" name="Page-1">
    <mxGraphModel dx="2031" dy="1063" grid="1" gridSize="10" guides="1" tooltips="1" connect="1" arrows="1" fold="1" page="1" pageScale="1" pageWidth="1600" pageHeight="1200" math="0" shadow="0">
      <root>
        <mxCell id="0" />
        <mxCell id="1" parent="0" />
        <mxCell id="jXoZcYs_IWxKlKA5XF76-1" value="" style="rounded=0;whiteSpace=wrap;html=1;" vertex="1" parent="1">
          <mxGeometry x="520" y="230" width="120" height="20" as="geometry" />
        </mxCell>
        <mxCell id="jXoZcYs_IWxKlKA5XF76-2" value="" style="rounded=0;whiteSpace=wrap;html=1;" vertex="1" parent="1">
          <mxGeometry x="650" y="230" width="120" height="20" as="geometry" />
        </mxCell>
        <mxCell id="jXoZcYs_IWxKlKA5XF76-3" value="" style="rounded=0;whiteSpace=wrap;html=1;" vertex="1" parent="1">
          <mxGeometry x="780" y="230" width="120" height="20" as="geometry" />
        </mxCell>
        <mxCell id="jXoZcYs_IWxKlKA5XF76-4" value="" style="rounded=0;whiteSpace=wrap;html=1;" vertex="1" parent="1">
          <mxGeometry x="910" y="230" width="120" height="20" as="geometry" />
        </mxCell>
        <mxCell id="jXoZcYs_IWxKlKA5XF76-12" value="" style="rounded=0;whiteSpace=wrap;html=1;direction=north;" vertex="1" parent="1">
          <mxGeometry x="1190" y="480" width="20" height="120" as="geometry" />
        </mxCell>
        <mxCell id="jXoZcYs_IWxKlKA5XF76-13" value="" style="rounded=0;whiteSpace=wrap;html=1;rotation=305;" vertex="1" parent="1">
          <mxGeometry x="1100" y="1040" width="120" height="20" as="geometry" />
        </mxCell>
        <mxCell id="jXoZcYs_IWxKlKA5XF76-14" value="" style="rounded=0;whiteSpace=wrap;html=1;rotation=55;" vertex="1" parent="1">
          <mxGeometry x="1020" y="290" width="120" height="20" as="geometry" />
        </mxCell>
        <mxCell id="jXoZcYs_IWxKlKA5XF76-17" value="" style="rounded=0;whiteSpace=wrap;html=1;rotation=55;" vertex="1" parent="1">
          <mxGeometry x="1100" y="400" width="120" height="20" as="geometry" />
        </mxCell>
        <mxCell id="jXoZcYs_IWxKlKA5XF76-18" value="" style="rounded=0;whiteSpace=wrap;html=1;direction=north;" vertex="1" parent="1">
          <mxGeometry x="1190" y="610" width="20" height="120" as="geometry" />
        </mxCell>
        <mxCell id="jXoZcYs_IWxKlKA5XF76-21" value="" style="rounded=0;whiteSpace=wrap;html=1;direction=north;" vertex="1" parent="1">
          <mxGeometry x="1190" y="740" width="20" height="120" as="geometry" />
        </mxCell>
        <mxCell id="jXoZcYs_IWxKlKA5XF76-22" value="" style="rounded=0;whiteSpace=wrap;html=1;direction=north;" vertex="1" parent="1">
          <mxGeometry x="1190" y="870" width="20" height="120" as="geometry" />
        </mxCell>
        <mxCell id="jXoZcYs_IWxKlKA5XF76-23" value="" style="rounded=0;whiteSpace=wrap;html=1;" vertex="1" parent="1">
          <mxGeometry x="520" y="1220" width="120" height="20" as="geometry" />
        </mxCell>
        <mxCell id="jXoZcYs_IWxKlKA5XF76-24" value="" style="rounded=0;whiteSpace=wrap;html=1;" vertex="1" parent="1">
          <mxGeometry x="650" y="1220" width="120" height="20" as="geometry" />
        </mxCell>
        <mxCell id="jXoZcYs_IWxKlKA5XF76-25" value="" style="rounded=0;whiteSpace=wrap;html=1;" vertex="1" parent="1">
          <mxGeometry x="780" y="1220" width="120" height="20" as="geometry" />
        </mxCell>
        <mxCell id="jXoZcYs_IWxKlKA5XF76-26" value="" style="rounded=0;whiteSpace=wrap;html=1;" vertex="1" parent="1">
          <mxGeometry x="910" y="1220" width="120" height="20" as="geometry" />
        </mxCell>
        <mxCell id="jXoZcYs_IWxKlKA5XF76-32" value="" style="rounded=0;whiteSpace=wrap;html=1;rotation=305;" vertex="1" parent="1">
          <mxGeometry x="1020" y="1150" width="120" height="20" as="geometry" />
        </mxCell>
        <mxCell id="jXoZcYs_IWxKlKA5XF76-33" value="" style="rounded=0;whiteSpace=wrap;html=1;direction=north;" vertex="1" parent="1">
          <mxGeometry x="340" y="480" width="20" height="120" as="geometry" />
        </mxCell>
        <mxCell id="jXoZcYs_IWxKlKA5XF76-34" value="" style="rounded=0;whiteSpace=wrap;html=1;rotation=305;direction=east;" vertex="1" parent="1">
          <mxGeometry x="410" y="290" width="120" height="20" as="geometry" />
        </mxCell>
        <mxCell id="jXoZcYs_IWxKlKA5XF76-35" value="" style="rounded=0;whiteSpace=wrap;html=1;rotation=55;direction=east;" vertex="1" parent="1">
          <mxGeometry x="330" y="1050" width="120" height="20" as="geometry" />
        </mxCell>
        <mxCell id="jXoZcYs_IWxKlKA5XF76-36" value="" style="rounded=0;whiteSpace=wrap;html=1;rotation=55;direction=east;" vertex="1" parent="1">
          <mxGeometry x="410" y="1160" width="120" height="20" as="geometry" />
        </mxCell>
        <mxCell id="jXoZcYs_IWxKlKA5XF76-37" value="" style="rounded=0;whiteSpace=wrap;html=1;direction=north;" vertex="1" parent="1">
          <mxGeometry x="340" y="610" width="20" height="120" as="geometry" />
        </mxCell>
        <mxCell id="jXoZcYs_IWxKlKA5XF76-38" value="" style="rounded=0;whiteSpace=wrap;html=1;direction=north;" vertex="1" parent="1">
          <mxGeometry x="340" y="740" width="20" height="120" as="geometry" />
        </mxCell>
        <mxCell id="jXoZcYs_IWxKlKA5XF76-39" value="" style="rounded=0;whiteSpace=wrap;html=1;direction=north;" vertex="1" parent="1">
          <mxGeometry x="340" y="870" width="20" height="120" as="geometry" />
        </mxCell>
        <mxCell id="jXoZcYs_IWxKlKA5XF76-40" value="" style="rounded=0;whiteSpace=wrap;html=1;rotation=305;direction=east;" vertex="1" parent="1">
          <mxGeometry x="330" y="400" width="120" height="20" as="geometry" />
        </mxCell>
      </root>
    </mxGraphModel>
  </diagram>
</mxfile>
